<?xml version="1.0" encoding="UTF-8"?>
<svg width="176px" height="156px" viewBox="0 0 176 156" version="1.1" xmlns="http://www.w3.org/2000/svg" xmlns:xlink="http://www.w3.org/1999/xlink">
    <!-- Generator: Sketch 45.2 (43514) - http://www.bohemiancoding.com/sketch -->
    <title>Group 5securely-logo</title>
    <desc>Created with Sketch.</desc>
    <defs>
        <linearGradient x1="84.7329185%" y1="85.96699%" x2="28.2351637%" y2="27.4618523%" id="linearGradient-1">
            <stop stop-color="#000000" stop-opacity="0" offset="0%"></stop>
            <stop stop-color="#000000" stop-opacity="0.290109828" offset="100%"></stop>
        </linearGradient>
    </defs>
    <g id="Welcome" stroke="none" stroke-width="1" fill="none" fill-rule="evenodd">
        <g id="Desktop-HD" transform="translate(-627.000000, -83.000000)">
            <g id="Logo" transform="translate(592.000000, 83.000000)">
                <g id="Group-5" transform="translate(35.000000, 0.000000)">
                    <g id="Group" transform="translate(49.000000, 0.000000)">
                        <g id="Layer_1" fill-rule="nonzero" fill="#FFFFFF">
                            <path d="M76,35 C76,65.2365 38,84 38,84 L38,70 C17.0136364,70 0,54.3305 0,35 C0,15.6695 17.0136364,0 38,0 C58.9863636,0 76,15.6695 76,35 Z" id="Shape"></path>
                        </g>
                        <path d="M72.1206036,51.5546998 L48.9649381,27.5763062 L26.3022871,49.4613739 L51.395027,75.4456667 C58.723243,69.8806692 67.2732496,61.7595501 72.1206036,51.5546998 Z" id="Combined-Shape" fill="url(#linearGradient-1)"></path>
                        <g id="lock_2" transform="translate(22.217252, 10.124178)" fill-rule="nonzero">
                            <g id="Layer_1">
                                <path d="M15.7523962,0 C9.96181534,0 5.25079872,4.76453178 5.25079872,10.6208912 L5.25079872,16.9934259 L9.4514377,16.9934259 L9.4514377,10.6208912 C9.4514377,7.10643828 12.2774176,4.24835646 15.7523962,4.24835646 C19.2273748,4.24835646 22.0533546,7.10643828 22.0533546,10.6208912 L22.0533546,16.9934259 L26.2539936,16.9934259 L26.2539936,10.6208912 C26.2539936,4.76453178 21.542977,0 15.7523962,0 Z" id="Shape" fill="#424242"></path>
                                <ellipse id="Oval" fill="#B0BEC5" cx="15.7523962" cy="28.6764061" rx="15.7523962" ry="15.9313367"></ellipse>
                                <ellipse id="Oval" fill="#E74C3C" cx="15.7523962" cy="28.6764061" rx="9.4514377" ry="9.55880205"></ellipse>
                                <ellipse id="Oval" fill="#2C3E50" cx="15.7523962" cy="28.6764061" rx="4.20063898" ry="4.24835646"></ellipse>
                            </g>
                        </g>
                    </g>
                    <g id="Group-Copy-2" transform="translate(0.000000, 105.000000)" fill="#FFFFFF">
                        <path d="M0.490979104,34.121724 C3.11922161,37.1659417 6.90389081,39.3703752 12.0552461,39.3703752 C18.5732875,39.3703752 22.8836052,35.4863733 22.8836052,30.2377221 C22.8836052,24.8840979 19.3617603,22.837124 15.5245262,21.1050691 L10.1629115,18.6906895 C7.69236356,17.5884728 4.06538891,15.9613909 4.06538891,11.6574969 C4.06538891,7.668522 7.32440961,5.04419641 12.1603758,5.04419641 C15.7347856,5.04419641 18.5732875,6.51381874 20.5707518,8.71825224 L21.6220488,7.56354898 C19.6245845,5.41160199 16.3655638,3.46960105 12.1603758,3.46960105 C6.58850171,3.46960105 2.38331371,6.82873781 2.38331371,11.7624699 C2.38331371,16.9061481 6.48337201,18.9531221 9.42700361,20.2652849 L14.7886183,22.6796644 C18.2578984,24.2542598 21.20153,25.7238821 21.20153,30.3426952 C21.20153,34.7515622 17.6271202,37.7957799 12.0552461,37.7957799 C7.85005811,37.7957799 4.17051861,35.9062654 1.64740581,32.9670208 L0.490979104,34.121724 Z M27.7195714,26.2487472 C27.7195714,18.0608514 32.9760564,13.0221462 38.5479305,13.0221462 C44.330064,13.0221462 48.0096035,17.1160942 48.0096035,24.5691789 C48.0096035,25.094044 48.0096035,25.6189091 47.9044738,26.2487472 L29.4016466,26.2487472 C29.4016466,32.9670208 33.2914455,37.9007529 39.2838384,37.9007529 C42.1223403,37.9007529 44.330064,36.9559957 46.2223986,35.5913464 L46.9583065,36.9559957 C45.0659719,38.1106989 42.9633779,39.3703752 39.1787087,39.3703752 C32.8709267,39.3703752 27.7195714,34.4366431 27.7195714,26.2487472 Z M29.4016466,24.8840979 L46.432658,24.8840979 C46.432658,17.9558783 43.278767,14.4917686 38.5479305,14.4917686 C34.0273534,14.4917686 29.9272951,18.4807435 29.4016466,24.8840979 Z M52.8455697,26.2487472 C52.8455697,34.5416161 57.6815359,39.3703752 64.0944476,39.3703752 C67.3534683,39.3703752 69.9817108,37.9007529 72.0843048,36.0112385 L71.1381375,34.8565352 C69.3509326,36.5361036 66.9329495,37.9007529 64.0944476,37.9007529 C58.3123141,37.9007529 54.5276449,33.1769668 54.5276449,26.2487472 C54.5276449,19.3205277 58.7328329,14.4917686 64.0944476,14.4917686 C66.7226901,14.4917686 68.7201544,15.7514448 70.4022296,17.3260402 L71.4535266,16.1713369 C69.7714514,14.5967416 67.5637277,13.0221462 64.0944476,13.0221462 C58.1020547,13.0221462 52.8455697,17.8509053 52.8455697,26.2487472 Z M78.0766977,29.81783 C78.0766977,36.3261575 80.4946808,39.3703752 85.6460362,39.3703752 C89.1153163,39.3703752 91.7435588,37.3758878 94.2666716,34.4366431 L94.3718013,34.4366431 L94.5820607,38.7405371 L95.9487468,38.7405371 L95.9487468,13.6519844 L94.3718013,13.6519844 L94.3718013,32.4421556 C91.2179103,36.2211845 88.9050569,37.9007529 85.7511659,37.9007529 C81.4408481,37.9007529 79.6536432,35.1714543 79.6536432,29.607884 L79.6536432,13.6519844 L78.0766977,13.6519844 L78.0766977,29.81783 Z M106.041198,38.7405371 L107.618143,38.7405371 L107.618143,21.3150151 C109.615608,16.381283 112.34898,14.5967416 114.661833,14.5967416 C115.608001,14.5967416 116.028519,14.7017146 116.869557,15.0166337 L117.290076,13.5470113 C116.449038,13.1271192 115.71313,13.0221462 114.872093,13.0221462 C111.823331,13.0221462 109.405348,15.3315527 107.723273,18.3757704 L107.618143,18.3757704 L107.407884,13.6519844 L106.041198,13.6519844 L106.041198,38.7405371 Z M119.39267,26.2487472 C119.39267,18.0608514 124.649155,13.0221462 130.221029,13.0221462 C136.003162,13.0221462 139.682702,17.1160942 139.682702,24.5691789 C139.682702,25.094044 139.682702,25.6189091 139.577572,26.2487472 L121.074745,26.2487472 C121.074745,32.9670208 124.964544,37.9007529 130.956937,37.9007529 C133.795439,37.9007529 136.003162,36.9559957 137.895497,35.5913464 L138.631405,36.9559957 C136.73907,38.1106989 134.636476,39.3703752 130.851807,39.3703752 C124.544025,39.3703752 119.39267,34.4366431 119.39267,26.2487472 Z M121.074745,24.8840979 L138.105756,24.8840979 C138.105756,17.9558783 134.951865,14.4917686 130.221029,14.4917686 C125.700452,14.4917686 121.600394,18.4807435 121.074745,24.8840979 Z M146.726392,36.0112385 C146.726392,38.425618 147.672559,39.3703752 149.249505,39.3703752 C149.880283,39.3703752 150.195672,39.2654022 150.616191,39.1604292 L150.300802,37.7957799 C149.775153,37.9007529 149.564894,37.9007529 149.354634,37.9007529 C148.723856,37.9007529 148.303337,37.3758878 148.303337,36.3261575 L148.303337,0.84527545 L146.726392,0.84527545 L146.726392,36.0112385 Z M155.241898,48.3980553 L154.821379,49.8676776 C155.452157,50.1825967 156.398324,50.3925427 157.239362,50.3925427 C161.54968,50.3925427 164.072792,46.1936218 165.334349,42.3096199 L175.4268,13.6519844 L173.744725,13.6519844 L168.067721,30.1327491 C167.331813,32.2322096 166.490775,34.9615082 165.649738,37.1659417 L165.439478,37.1659417 C164.493311,34.9615082 163.442014,32.2322096 162.600977,30.1327491 L156.188065,13.6519844 L154.40086,13.6519844 L164.8087,39.3703752 L164.072792,41.6797817 C162.706106,45.7737297 160.498383,48.8179474 157.344492,48.8179474 C156.608584,48.8179474 155.767546,48.6080013 155.241898,48.3980553 Z" id="Securely"></path>
                    </g>
                </g>
            </g>
        </g>
    </g>
</svg>